<?xml version="1.0" encoding="UTF-8"?>
<!DOCTYPE svg PUBLIC "-//W3C//DTD SVG 1.1//EN" "http://www.w3.org/Graphics/SVG/1.1/DTD/svg11.dtd">
<!-- Creator: CorelDRAW -->
<svg xmlns="http://www.w3.org/2000/svg" xml:space="preserve" width="37.4567mm" height="101.32mm" version="1.1" style="shape-rendering:geometricPrecision; text-rendering:geometricPrecision; image-rendering:optimizeQuality; fill-rule:evenodd; clip-rule:evenodd"
viewBox="0 0 1372.48 3712.55"
 xmlns:xlink="http://www.w3.org/1999/xlink"
 xmlns:xodm="http://www.corel.com/coreldraw/odm/2003">
 <defs>
  <style type="text/css">
   <![CDATA[
    .fil4 {fill:#848688}
    .fil3 {fill:#727376}
    .fil2 {fill:#373435}
    .fil1 {fill:#83B762}
    .fil0 {fill:#9ACB79}
    .fil5 {fill:#FFD136}
   ]]>
  </style>
 </defs>
 <g id="Camada_x0020_1">
  <metadata id="CorelCorpID_0Corel-Layer"/>
  <g id="_2546982511216">
   <polygon class="fil0" points="81.19,3598.01 1292.76,3602.86 1293.77,1249.23 82.44,1252.59 "/>
   <path class="fil0" d="M1278.03 544.12c2.71,-104.55 1.74,-283.01 -50.47,-350.64 -16.68,-4.74 -30.15,-10.33 -40.4,-18.94 -85.97,-29.69 -181.95,-64.33 -218.19,-120.49l-556.43 -0.78c-49.34,71.36 -137.81,82.84 -216.71,120.89l-42.9 17.29c-39.91,27.67 -48.84,106.8 -51.05,154.3 -2.91,62.68 -11.24,135.05 -7.31,197.92l-7.6 614.43 215.57 0.35c1.23,-427.88 -39.1,-401.95 394.68,-399.86 429.5,2.07 374.45,-28.19 375.48,401.11l220.28 0.65 -14.95 -616.22z"/>
   <path class="fil1" d="M82.44 1252.59l1211.32 -3.37 -1.01 2353.63 -1211.56 -4.86 1.25 -2345.41zm1288.51 -36.04l-1368.45 0.02c3.47,5.38 -4.42,2240.03 -0.45,2495.98l1370.43 -0.72 -1.53 -2495.28z"/>
   <path class="fil2" d="M178.65 499c27.76,35.62 112.23,141.75 141.89,162.12 89.57,-14.49 171.56,-28.64 242.17,-36.18 99.57,-10.63 171.51,-8.92 266.61,1.62 49.66,5.5 156.66,18.58 231.06,37.1 32.66,-43.72 126.8,-137.08 140.03,-162.31 -155.68,-92.03 -771.54,-128.79 -1021.76,-2.35z"/>
   <path class="fil1" d="M1293.07 1160.06l-220.38 -0.36c-1.03,-429.3 54.02,-399.04 -375.48,-401.11 -433.78,-2.08 -393.45,-28.02 -394.68,399.86l-215.57 -0.35 7.94 -608.99c-4.09,-60.92 4.07,-140.68 6.98,-203.37 2.21,-47.5 11.15,-126.63 51.05,-154.3 -26.16,-125.79 151.57,-158.85 261.11,-164.51l-1.51 26.33 556.43 0.78 -1.1 -28.01c107.67,7.59 280.25,31.34 259.68,167.45 27.14,30.53 54.16,137.04 51.07,312.91 -4.35,247.93 11.31,563.08 14.44,653.67zm36.67 -613.85c-1.15,-202.71 20.81,-389.03 -109.63,-484.98 -114.76,-84.42 -372.15,-55.73 -533.77,-56.03 -167.07,-0.32 -397.08,-30.28 -532.3,57.46 -135,102.09 -104.23,282.12 -108.85,485.06l0 76.43 -14.75 533.87 1309.75 2.09 -10.45 -613.89z"/>
   <polygon class="fil2" points="1353.7,1160.15 22.12,1157.99 22.18,1216.57 1353.73,1216.55 "/>
   <path class="fil2" d="M1276.42 607.12l95.9 -2.99c-15.31,-33.99 -14.65,-37.73 -42.59,-57.92l-58.62 -4.2c-54.9,12.14 -82.43,27.44 -72.66,47.05 -31.1,41.74 -32.04,38.34 -73.95,85.02 -6.18,82.69 -6.87,293.06 -0.42,376.47l128.43 1.34 -12.73 -450.13 36.64 5.37z"/>
   <path class="fil3" d="M968.97 54.05c36.24,56.16 132.22,90.8 218.19,120.49l-5.39 -93.48c-64.46,-44.22 -145.59,-47.46 -213.89,-55.02l1.1 28.01z"/>
   <path class="fil4" d="M198.5 83.7l-2.67 90.46c78.89,-38.06 167.37,-49.54 216.71,-120.89 0.5,-8.78 1,-17.56 1.51,-26.33 -69.17,2.63 -163.76,20.37 -215.55,56.77z"/>
   <path class="fil5" d="M152.93 191.45l42.9 -17.29 2.67 -90.46c-45.13,32.45 -51.43,64.94 -45.57,107.75z"/>
   <path class="fil5" d="M1187.16 174.54c8.8,7.03 18.62,12.69 40.4,18.94 6.64,-49.5 -9.5,-86.84 -45.79,-112.43l5.39 93.48z"/>
   <path class="fil2" d="M95.9 604.5l-95.9 -3c15.31,-33.99 14.65,-37.73 42.59,-57.92l58.62 -4.2c54.9,12.14 82.43,27.44 72.66,47.05 31.1,41.74 32.04,38.34 73.95,85.02 6.18,82.69 6.87,293.05 0.42,376.47l-128.43 1.34 12.73 -450.13 -36.64 5.38z"/>
  </g>
 </g>
</svg>
