<?xml version="1.0" encoding="UTF-8"?>
<!DOCTYPE svg PUBLIC "-//W3C//DTD SVG 1.1//EN" "http://www.w3.org/Graphics/SVG/1.1/DTD/svg11.dtd">
<!-- Creator: CorelDRAW -->
<svg xmlns="http://www.w3.org/2000/svg" xml:space="preserve" width="45.6322mm" height="101.319mm" version="1.1" style="shape-rendering:geometricPrecision; text-rendering:geometricPrecision; image-rendering:optimizeQuality; fill-rule:evenodd; clip-rule:evenodd"
viewBox="0 0 539.28 1197.37"
 xmlns:xlink="http://www.w3.org/1999/xlink"
 xmlns:xodm="http://www.corel.com/coreldraw/odm/2003">
 <defs>
  <style type="text/css">
   <![CDATA[
    .fil0 {fill:#D2D3D5}
    .fil3 {fill:#000101}
    .fil2 {fill:#83B762}
    .fil1 {fill:#9ACB79}
    .fil4 {fill:#C92728}
   ]]>
  </style>
 </defs>
 <g id="Camada_x0020_1">
  <metadata id="CorelCorpID_0Corel-Layer"/>
  <g id="_2546979452960">
   <path class="fil0" d="M368.48 9.05c23.76,1.29 37.55,7.54 58.53,17.95 25.89,12.85 42.06,23.86 51.97,41.73 -37.74,-0.36 -75.52,-23.05 -110.5,-59.68z"/>
   <path class="fil0" d="M171.44 8.21c-23.76,1.29 -37.55,7.54 -58.53,17.95 -25.89,12.85 -42.06,23.86 -51.97,41.74 37.74,-0.36 75.52,-23.05 110.5,-59.69z"/>
   <path class="fil1" d="M31.34 391.7l0.01 -0c15.28,140.43 1.52,384.69 -10.24,524.64 -2.45,29.07 -0.18,132.14 9.19,155.14 0.92,-3.41 0.96,-4.57 5.31,-6.72 5.8,9.96 6.37,5.93 13.55,11.82 8.76,7.19 13.38,25.47 28.13,46.75 24.67,35.6 45.95,28.52 42.02,49.74 43.48,31.04 259.46,33.78 300.06,-0.19 -5.02,-22.18 23.85,-7.99 60.37,-82.71 10.44,-21.37 14.21,-11.59 23.37,-24.88 7.11,4.07 1.03,2.23 5.29,7.62 10.11,-27.91 11.59,-125.96 8.78,-159.93 -13.95,-168.46 -8.14,-289.97 -12.14,-452.05 -0.5,-20.15 -0.25,-52.66 0.94,-66.32 0.22,0.03 5.66,-44.35 5.93,-46.85 7.97,-72.4 7.49,-86.07 2.37,-163.26 -2.29,-34.5 -12.08,-89.34 -32.12,-112.71 -5.8,-7.45 -3.97,-2.32 -20.89,-7.18 -14.73,-4.23 -31.34,-15.16 -47.75,-20.26 11.29,29.06 51.22,60.8 57.2,153.38 2.15,33.17 3.33,67.36 2.61,100.63 -0.55,25.47 -0.55,65.57 -3.7,91.35l-0.07 11.08 1 18.38 -0.36 336.24c-9.5,-4.36 -21.49,-7.17 -38.36,-12.37l-0.09 34.64 38.16 18.33 0.7 173.98c-1.9,44.48 9.4,134.47 -28.61,163.79 -62.91,48.09 -182.31,53.44 -258.84,35.99 -88.67,-20.22 -115.36,-44.82 -116.03,-136.01 1.05,-79.24 1.35,-160.78 1.66,-240.98l36.91 -17.42 -0.08 -35.49c-12.24,4.63 -22.72,8.48 -38.07,14.12l1 -367.66c-5.75,-52.6 -4.77,-140.16 -0.45,-194.98 4.21,-53.45 12.31,-70.6 33.48,-114.38 6.81,-14.08 14.15,-20.82 24.69,-33.89 -19.1,5.23 -25.63,12.24 -42.29,19.33 -22.16,9.42 -19.09,-5.5 -32.36,19.52 -45.21,85.2 -29.47,217.71 -20.27,309.78z"/>
   <g>
    <path class="fil2" d="M232.47 995.15c0.71,-13.87 -12,-4.01 -4.19,-21.03 25.63,2.64 11.85,-18.33 38.22,-16.32 40.74,3.12 -19.56,11.98 20.9,7.99 20.25,-2 -5.7,18.07 19.02,14.8l-1.05 11.82c-26.34,21.44 -4.24,7.76 -41.2,7.77 -50.23,0.02 11.94,17.34 -31.7,-5.03zm-165.63 -250.09l1.16 -336.85 29.89 103.37c8.05,21.18 7.15,26.25 7.13,51.02 -0.01,19.53 -0.08,39.06 -0.08,58.59 0,16.1 2.14,262.19 -0.76,272.08 -1.75,5.96 -29.32,75.84 -36.17,80.76 -1.52,2.12 -0.94,59.67 -0.88,67.07 0.67,91.19 27.36,115.78 116.03,136.01 97.48,12.75 194.65,1.84 258.84,-35.99 38.34,-29.31 28.51,-119.3 29.01,-163.79 -8.84,-13.8 -32.14,-65.06 -38.17,-83.52 -0.95,-93.3 0.46,-185.95 0.46,-279.13 0,-20.26 -0.73,-41.83 -0.07,-61.92 0.66,-20.31 8.25,-33.63 9.83,-51.83l26.85 -93.37 0.63 18.95 38.35 9.93c18.19,2.07 32.41,12.87 30.16,-9.2 -3.5,-34.37 -46.5,-32.02 -69.03,-33.05 3.15,-25.78 2.75,-63.02 3.3,-88.49 0.72,-33.26 1.13,-67.74 -1.02,-100.91 -2.4,-77.77 -31.07,-147.27 -94.52,-192.09 -16.88,-16.51 -194.1,-17.18 -214.98,-0.62 -24.27,19.25 -47.58,36.65 -61.22,64.86 -22.65,43.45 -32.06,67.45 -34.67,121.26 -4.32,54.82 -4.1,142.84 1.64,195.44 -13.12,2.56 -75.9,-4.24 -67.83,45.39 8.77,2.78 17.96,-0.71 28.63,-3.2 11.92,-2.73 22.14,-7.55 33.74,-11.22l4.89 -1.34 -1.14 321.78z"/>
   </g>
   <path class="fil3" d="M115.66 482.65l5.29 18.04c97.49,-17.99 198.86,-27.49 295.81,0.89 24.54,-101.04 26.87,-117.1 38.83,-171.05 -43.94,-73.85 -371.82,-56.1 -376.78,3.61l17.12 77.12 19.73 71.39z"/>
   <path class="fil3" d="M82.14 1018.04c43.64,22.37 138.32,31.52 188.56,31.5 36.97,-0.01 160.27,-10.81 186.6,-32.25l-35.09 -91.31c-16.55,2.57 -50.23,4.24 -70.48,6.24 -40.46,3.99 -118.2,3.8 -158.94,0.68 -26.38,-2.02 -49.02,-7.42 -74.65,-10.06 -7.81,17.02 -35.28,81.33 -36,95.2z"/>
   <path class="fil3" d="M432.88 545.38c-0.91,27.99 -1.1,197.62 -1.06,197.68 11.95,3.56 28.86,8.01 38.36,12.37l0.36 -336.24 -1.38 -25.49c-9.21,35.28 -35.18,118.09 -36.27,151.67z"/>
   <path class="fil3" d="M105.61 740.01c-0.33,-61.59 -0.64,-123.14 -0.59,-184.74 0.02,-24.77 0.53,-32.57 -7.13,-51.02l-29.89 -103.37 -0.46 353.1 38.07 -13.98z"/>
   <path class="fil3" d="M68.78 792.79l-1.01 182.09c6.86,-4.92 36.47,-80.24 38.22,-86.2l-0.3 -113.48 -36.91 17.6z"/>
   <path class="fil3" d="M470.31 796.02l0.5 181.01c-6.86,-4.92 -36.47,-77.09 -37.97,-83.2l-1.1 -116.13 38.57 18.33z"/>
   <path class="fil4" d="M419.36 1172.89c18.26,-2.44 51.69,-25.88 59.64,-34.67 13.74,-15.19 25.17,-36.67 29.39,-65.3 -0.66,-4.32 1.82,-3.56 -5.29,-7.62 -9.16,13.29 -12.93,3.51 -23.37,24.88 -36.51,74.72 -65.38,60.53 -60.37,82.71z"/>
   <path class="fil4" d="M30.29 1071.48c3.49,29.59 14.51,50.38 29.38,66.2 9.8,10.43 38.76,31.72 59.63,35.4 3.92,-21.22 -17.35,-14.14 -42.02,-49.74 -14.75,-21.28 -19.37,-39.56 -28.13,-46.75 -7.18,-5.89 -7.74,-1.86 -13.55,-11.82 -2.9,1.67 -4.53,2.41 -5.31,6.72z"/>
  </g>
 </g>
</svg>
