<?xml version="1.0" encoding="UTF-8"?>
<!DOCTYPE svg PUBLIC "-//W3C//DTD SVG 1.1//EN" "http://www.w3.org/Graphics/SVG/1.1/DTD/svg11.dtd">
<!-- Creator: CorelDRAW -->
<svg xmlns="http://www.w3.org/2000/svg" xml:space="preserve" width="44.989mm" height="101.32mm" version="1.1" style="shape-rendering:geometricPrecision; text-rendering:geometricPrecision; image-rendering:optimizeQuality; fill-rule:evenodd; clip-rule:evenodd"
viewBox="0 0 845.82 1904.87"
 xmlns:xlink="http://www.w3.org/1999/xlink"
 xmlns:xodm="http://www.corel.com/coreldraw/odm/2003">
 <defs>
  <style type="text/css">
   <![CDATA[
    .fil12 {fill:none}
    .fil3 {fill:#D2D3D5}
    .fil10 {fill:#BDBFC1}
    .fil11 {fill:#A9ABAE}
    .fil7 {fill:#727376}
    .fil0 {fill:#373435}
    .fil14 {fill:#F58634}
    .fil4 {fill:#000101}
    .fil6 {fill:#83B762}
    .fil8 {fill:#83B762}
    .fil5 {fill:#9ACB79}
    .fil1 {fill:#9ACB79}
    .fil2 {fill:#B9E69A}
    .fil9 {fill:#B9E69A}
    .fil13 {fill:#EC3237}
   ]]>
  </style>
 </defs>
 <g id="Camada_x0020_1">
  <metadata id="CorelCorpID_0Corel-Layer"/>
  <g id="_2546979457040">
   <path class="fil0" d="M300.58 1682.42c13.57,3.24 18.32,2.52 28.29,12.47 25.67,0.34 54.77,10.68 85.11,11.58 30.52,0.9 60.7,-8.11 88.73,-6.99 19.26,-6.98 23.17,-10.77 39.71,-18.24 13.85,-10.52 9.98,-6.06 18.5,-17.77l19.35 -25.92c-0.58,-15.82 5.13,-35.33 4.95,-53.79 -0.2,-21.78 -2.57,-45 -3.05,-67.56 -0.36,-17.19 -4.85,-124.48 -10.53,-136.6l-298.94 0.17c-0.58,116.46 -40.78,209.47 27.88,302.66z"/>
   <path class="fil0" d="M564.54 1339.79l-22.21 -113.3 -15.81 -76.75 -10.92 -134.22c-32.72,14.15 -21.04,37.53 -78.28,46.98l-29.24 -0.87c-57.17,-8.84 -53.95,-36.55 -81.44,-47.14 -0.75,114.67 -24.86,218.7 -47.77,325.18l285.69 0.12z"/>
   <path class="fil1" d="M265.99 873.86c4.81,-0.38 27.44,32.01 36.13,40.81 49.28,49.97 51.3,97.34 105.95,146.96l29.24 0.87c49.35,-45.38 58.51,-104.06 101.45,-145.44 11.2,-10.8 28.86,-26.5 41.1,-36.98 29.96,-91.19 -1.81,-229.45 -81.03,-283.47 -14.09,3.04 -28.28,5.75 -41.83,10.69 9.44,0.71 45.4,19.16 64.39,62.25 29.85,83.81 -26.39,263.67 -97.09,264.26 -72.56,0.61 -130.42,-189.9 -95.87,-263.49 12.43,-39.75 58.68,-55.13 67.03,-60.05 -9.16,-11.03 -31.56,-13.56 -49.78,-14.28 -57.03,45.48 -74.26,70.45 -84.91,155.76l-2.92 33.78c-3.48,54.9 -7.01,42.78 8.13,88.32z"/>
   <path class="fil2" d="M457.08 607.28c-0.3,18.04 -14.09,30.05 -29.53,30.82 -19.7,0.65 -31.34,-15.44 -32.07,-27.83 -9.98,5.68 -53.31,20.5 -67.03,60.05 -34.55,73.59 23.31,264.1 95.87,263.49 70.7,-0.59 126.94,-180.45 97.09,-264.26 -11.39,-27.98 -41.99,-58.63 -64.32,-62.28z"/>
   <path class="fil3" d="M564.54 1339.79l2.04 25.26c4.21,26.28 1.01,5.47 6.95,32.3 4.91,37.31 7.85,81.08 8.65,118.84 0.48,22.57 2.84,45.78 3.05,67.56 0.17,18.47 -5.54,37.97 -4.95,53.79l-19.35 25.92c-8.52,11.71 -4.65,7.25 -18.5,17.77l-12.87 42.74c6.1,12.69 -1.5,1.82 10.88,17.39 4.3,5.42 6.52,10.86 9.19,14.9l7.88 15.17c10.54,19.57 11.04,15.43 14.95,39.68l1.68 6.07 -4.83 10.34 -12.99 8.19 2.45 56.84c8.77,9.32 5.22,7.86 20.83,7.77 1.8,-0.01 12.2,-0.58 14.45,-1.32 6.42,-2 8.62,-2.44 11.33,-7.57 3.32,-38.07 -2.1,-79.23 0.93,-116.4 3.27,-40.07 19.25,-33.84 17.46,-98.37 -0.88,-31.76 -3.78,-380.35 -10.44,-401.54 -7.03,-22.38 -13.86,-10.43 -17.22,-42.96 -6.48,-62.73 -11.07,-170.53 -10.08,-232.75 -5.3,-48.39 -8.49,1.86 -4.24,-58.88l-4.62 -35.91c-2.67,4.89 -5.47,18.5 -6.99,23.69l-28.15 42.89c-8.96,20.06 -0.97,124.21 -0.28,150.06 9.89,1.59 7.04,-7.44 7.31,17.1 -1.71,17.78 -0.63,29.11 0.75,47.03 0.3,3.93 1.66,23.35 1.24,26.04 0.98,26.78 1.94,34.22 -3.09,43.84l16.57 84.52z"/>
   <path class="fil4" d="M480.48 156.3c1.6,-81.59 13.67,-157.66 -52.95,-156.21 -77.22,-3.12 -63.54,71.66 -63.88,156.36 20.92,-5.81 80.01,-5.83 116.83,-0.15z"/>
   <path class="fil5" d="M482.98 370.33c-3.85,-66.17 13.41,-154.85 -58.76,-156.4 -78.34,-1.68 -52.22,87.59 -61.96,154.9l120.72 1.49z"/>
   <path class="fil6" d="M362.26 368.83c9.74,-67.32 -16.38,-156.58 61.96,-154.9 72.17,1.55 54.91,90.23 58.76,156.4l-120.72 -1.49zm-13.4 14.5l150.24 -0.23c-4.32,-41.07 -5.66,-59.58 -5.64,-99.16 -1.64,-41.32 -4.11,-74.95 -7.92,-124.97 -24.71,-8.4 -90.46,-9.03 -125.16,-1.71l-7.84 125.39c-0.94,31.76 2.3,58.22 -3.68,100.69z"/>
   <path class="fil7" d="M272.7 1379.76c46.77,-0.16 283.97,-2.41 298.94,-0.17 -0.72,-20.41 -3.13,-30.86 -7.11,-39.8l-285.69 -0.12c-13.63,2.96 -16.94,4.41 -18.93,19.74 1.96,18.39 4.71,19.3 12.78,20.36z"/>
   <path class="fil8" d="M352.58 1764.54c22.25,15.91 16.66,25.45 44.77,22.37 20.8,-7.11 29.19,-6.63 49.01,-0.03 21.92,2.13 31.35,-9.98 46.43,-16.12 11.85,-8 28.02,-28.42 33.96,-37.46l15.67 -52.06c-16.54,7.47 -16.3,3.09 -28.04,13.72 -0.36,3.82 -0.49,4.37 -0.79,7.5 -39.13,58.41 -108.98,64.69 -155.18,29.9 -6.85,-5.16 -30.27,-29.9 -29.55,-37.47 -9.97,-9.94 -14.71,-9.22 -28.29,-12.47 13.34,28.84 31.1,70.63 52,82.12z"/>
   <path class="fil1" d="M491.51 1811.02l0.31 -9.8 1.4 -21.2 -0.42 -9.27c-15.09,6.13 -24.51,18.24 -46.43,16.12 6.56,17.82 15.14,36.22 17.12,63.51l0.9 13.06 -8.78 6.74c-19.1,11.93 -46.95,13.72 -67.72,-0.01l-8.58 -7.6 2.94 -12.84c-0.88,-29.68 8.93,-42.15 15.09,-62.82 -28.11,3.09 -22.52,-6.46 -44.77,-22.37l0.75 5.67c-0.18,12.8 -0.53,25.59 -0.53,38.39 18.46,29.44 -20.93,92.77 66.4,96.2 23.91,0.94 52.72,-7.24 61.67,-21.76 8,-12.98 6.8,-54.08 10.64,-72.01z"/>
   <path class="fil9" d="M413.97 1706.47c-30.34,-0.9 -59.45,-11.24 -85.11,-11.58 -0.72,7.57 22.7,32.31 29.55,37.47 46.2,34.79 116.05,28.51 155.18,-29.9 0.08,-4.49 0.81,-6.11 0.69,-7.55 -12.74,5.62 -85.02,12.01 -100.31,11.56z"/>
   <path class="fil0" d="M555.66 470.91l18.63 -0.55c16.29,-4.72 4.02,-19.4 1.39,-29.1l-19.71 0.1 -1.84 -36.07 -4.22 -4.87 -44.44 0.46c-2.36,0.23 -4.34,2.12 -5.34,3.71l0.94 21.05 8.79 37.18c-0.5,23.75 19.76,37.01 14.22,58.29l32.28 6.92 -0.71 -57.11z"/>
   <path class="fil8" d="M515.59 1015.53c17.8,-51.7 61.25,-59.12 64.27,-135.44 -12.23,10.48 -29.89,26.18 -41.1,36.98 -42.94,41.38 -52.1,100.06 -101.45,145.44 57.24,-9.45 45.56,-32.83 78.28,-46.98z"/>
   <path class="fil8" d="M326.62 1014.49c27.49,10.59 24.27,38.31 81.44,47.14 -54.86,-49.81 -56.52,-96.85 -105.95,-146.96 -8.68,-8.8 -31.32,-41.19 -36.13,-40.81 -7.68,62.76 46.78,90.95 60.63,140.63z"/>
   <path class="fil10" d="M542.48 400.68c0.2,-24.57 -0.9,-78.92 -1.94,-109.76 -7.73,-7.25 -15.9,-7.3 -28.68,-4.84l-0.2 5.1 -18.22 0.32c-0.14,14.56 0.05,30.24 -0.03,30.22 5.13,1.47 11.03,1.31 17.93,2.19l-2.03 76.92 33.16 -0.15z"/>
   <path class="fil11" d="M650.34 577.96c0.58,-20.79 7.04,-26.25 19.52,-41.06 6.02,-1.04 12.01,-1.47 17.92,-0.17 0.21,-6.17 0.76,-13.36 9.16,-13.32 19.34,0.1 38.55,4.82 58.23,4.88 56.88,0.17 59.82,-1.71 55.19,-15.14 -19.74,-4.73 -1.44,5.63 -26.04,6.8 -28.83,1.58 -62.67,-7.88 -95.93,-19.86 -9.2,-3.31 -8.66,-5.91 -13.45,1.43 -8.04,12.3 -17.58,25.88 -20.52,34.47l-13.93 27.35c0.67,0.55 1.86,3.39 2.33,3.94 2.11,2.46 4.44,6.57 7.54,10.69z"/>
   <path class="fil10" d="M463.48 1850.39c-1.99,-27.29 -10.57,-45.69 -17.12,-63.51 -19.82,-6.6 -28.21,-7.08 -49.01,0.03 -6.17,20.67 -15.97,33.15 -15.09,62.82l81.23 0.66z"/>
   <polygon class="fil7" points="341.85,544.19 360.4,566.77 490.08,566.69 510.86,544.5 "/>
   <polygon class="fil0" points="501.58,402.84 501.15,383.36 498.15,382.97 348.86,383.33 344.15,384.24 344.75,404.06 "/>
   <path class="fil0" d="M682.51 486.37c14.25,-5.93 33.07,-5.9 50.49,-5.51 -0.72,4.75 -2.25,12.37 60.12,1.41 49.96,-4 54.29,-6.23 52.33,-14.55 -4.61,-30.94 -86.7,-7.12 -116.47,-1.94 -18.61,3.24 -42.56,1.54 -63.49,16.74 -8.63,10.41 -17.71,20.09 -27.36,36.55 -0.95,1.78 -10.38,4.07 -15.78,0.58l-11.7 32.44 27.84 14.53 17.03 -33.5 -4.03 -3.14c2.03,-6.96 15.28,-34.2 31.02,-43.62z"/>
   <path class="fil3" d="M577.91 450.08l3.02 15.04c3.05,12.88 15.97,18.06 28.2,16.91 18.01,0.87 21.95,-15.47 25.3,-39.96 0.44,-3.22 3.92,-7.68 4.25,-11.12l-66.6 0.89 2.82 6.27 3.01 11.97z"/>
   <polygon class="fil3" points="611.45,549.94 622.36,519.66 555.91,489.85 556.37,528.02 "/>
   <path class="fil0" d="M702.27 557.83c-0.76,-8.68 -0.13,-12.18 -4.62,-16.26 -5.61,-5.11 -14.54,-6.85 -27.79,-4.67 -15.66,18.45 -18.04,20.97 -19.52,41.06 2.49,17.1 22.34,23.91 38.26,12.02l0 0 67.94 31.84 14.36 -31.68 -68.64 -32.31z"/>
   <path class="fil11" d="M505.49 550.23l-15.42 16.46 -129.68 0.08 -18.55 -22.58c-9.29,-8.37 -16.64,-18.3 -22.56,-23.53 -7.71,2.49 -21.94,8.82 -29.88,10.72 -0.39,5.81 -0.92,7.19 -0.78,11.61 1.39,0.11 4.85,-0.07 4.69,0.95 2.05,25.16 -6.15,30.43 26.19,43.57 16.49,4.26 15.56,4.47 26.19,8.49 18.22,0.72 40.62,3.24 49.78,14.28 -0.06,-39.77 55.48,-44.65 61.6,-2.99 14.05,-5.37 27.88,-7.13 41.83,-10.69l28.06 -10.84c33.44,-4.83 17.02,-24.39 45.32,-41.61l0.35 -12.64 -47.15 -9.26 -7.93 13.82 -6.69 8.43 -5.37 5.73zm26.65 -12.42c8.45,0 15.31,7.04 15.31,15.72 0,8.68 -6.85,15.72 -15.31,15.72 -8.45,0 -15.31,-7.04 -15.31,-15.72 0,-8.68 6.85,-15.72 15.31,-15.72zm-212.1 2.1c8.45,0 15.31,7.04 15.31,15.72 0,8.68 -6.85,15.72 -15.31,15.72 -8.45,0 -15.31,-7.04 -15.31,-15.72 0,-8.68 6.85,-15.72 15.31,-15.72z"/>
   <path class="fil0" d="M387.89 1870.18c9.37,-7.47 -12.37,-6.05 15.8,-6.68l36.18 -0.02c26.87,1.2 7.93,-0.33 15.73,6.72l8.78 -6.74 -0.9 -13.06 -81.23 -0.66 -2.94 12.84 8.58 7.6z"/>
   <path class="fil10" d="M770.91 590.14l-14.36 31.68c16.79,9.72 32.26,10.36 38.41,-0.05 7.24,-13.09 -1.49,-23.16 -24.05,-31.64z"/>
   <path class="fil12" d="M104.37 616.02l-9.88 -30.77c-16.97,5.28 -14.61,3.11 -26.8,15.79l5.6 24.55c19.87,1.41 18.36,-0.1 31.08,-9.57z"/>
   <path class="fil13" d="M455.61 1870.19c-7.8,-7.05 11.13,-5.52 -15.73,-6.72l-36.18 0.02c-28.18,0.64 -6.43,-0.79 -15.8,6.68 20.77,13.73 48.62,11.94 67.72,0.01z"/>
   <path class="fil0" d="M638.67 430.94c-0.57,-3.89 -1.34,-8.9 -6.57,-9.55l-54.47 0.47c-3.84,3.18 -4.36,5.38 -5.55,9.98l66.6 -0.89z"/>
   <path class="fil14" d="M632.1 421.39c-5.48,-7.32 -11.89,-10.86 -28.37,-10.88 -12.37,0.86 -18.01,2.23 -26.1,11.35l54.47 -0.47z"/>
   <path class="fil0" d="M290.15 472.61l-18.63 -0.55c-16.29,-4.72 -4.02,-19.4 -1.39,-29.1l19.71 0.1 1.84 -36.07 4.22 -4.87 44.44 0.46c2.36,0.23 4.34,2.12 5.34,3.71l-0.94 21.05 -8.79 37.18c0.5,23.75 -19.76,37.01 -14.22,58.29l-32.28 6.92 0.71 -57.11z"/>
   <path class="fil10" d="M303.34 402.39c-0.2,-24.57 0.9,-78.92 1.94,-109.76 7.73,-7.25 15.9,-7.3 28.68,-4.84l0.2 5.1 18.22 0.32c0.14,14.56 -0.05,30.24 0.03,30.22 -5.13,1.47 -11.03,1.31 -17.93,2.19l2.03 76.92 -33.16 -0.15z"/>
   <path class="fil11" d="M195.47 579.66c-0.58,-20.79 -7.04,-26.25 -19.52,-41.06 -6.02,-1.04 -12.01,-1.47 -17.92,-0.17 -0.21,-6.17 -0.76,-13.36 -9.16,-13.32 -19.34,0.1 -38.55,4.82 -58.23,4.88 -56.88,0.17 -59.82,-1.71 -55.19,-15.14 19.74,-4.73 1.44,5.63 26.04,6.8 28.83,1.58 62.67,-7.88 95.93,-19.86 9.2,-3.31 8.66,-5.91 13.45,1.43 8.04,12.3 17.58,25.88 20.52,34.46l13.93 27.35c-0.67,0.55 -1.86,3.39 -2.33,3.94 -2.11,2.46 -4.44,6.57 -7.54,10.69z"/>
   <path class="fil0" d="M163.31 488.08c-14.25,-5.93 -33.07,-5.9 -50.49,-5.51 0.72,4.75 2.25,12.37 -60.12,1.41 -49.96,-4 -54.29,-6.23 -52.33,-14.55 4.61,-30.94 86.7,-7.12 116.47,-1.94 18.61,3.24 42.56,1.54 63.49,16.74 8.63,10.41 17.71,20.09 27.36,36.55 0.95,1.78 10.38,4.07 15.78,0.58l11.7 32.44 -27.84 14.53 -17.03 -33.5 4.03 -3.14c-2.03,-6.96 -15.28,-34.2 -31.02,-43.62z"/>
   <path class="fil3" d="M267.91 451.78l-3.02 15.04c-3.05,12.88 -15.97,18.06 -28.2,16.91 -18.01,0.87 -21.95,-15.47 -25.3,-39.96 -0.44,-3.22 -3.92,-7.68 -4.25,-11.12l66.6 0.89 -2.82 6.28 -3.01 11.96z"/>
   <polygon class="fil3" points="234.37,551.65 223.46,521.36 289.91,491.55 289.44,529.72 "/>
   <path class="fil0" d="M143.55 559.53c0.76,-8.68 0.13,-12.18 4.62,-16.26 5.61,-5.11 14.54,-6.85 27.79,-4.67 15.66,18.45 18.04,20.97 19.52,41.06 -2.49,17.1 -22.34,23.91 -38.26,12.02l0 0 -67.94 31.84 -14.36 -31.68 68.64 -32.31z"/>
   <path class="fil10" d="M74.91 591.84l14.36 31.68c-16.79,9.72 -32.26,10.36 -38.41,-0.05 -7.24,-13.09 1.49,-23.16 24.05,-31.64z"/>
   <path class="fil0" d="M207.15 432.64c0.57,-3.89 1.34,-8.9 6.57,-9.55l54.47 0.47c3.84,3.18 4.36,5.38 5.55,9.98l-66.6 -0.89z"/>
   <path class="fil14" d="M213.72 423.09c5.48,-7.32 11.89,-10.86 28.37,-10.88 12.37,0.86 18.01,2.23 26.1,11.35l-54.47 -0.47z"/>
   <g>
    <path class="fil10" d="M574.13 1817.18c-3.68,-24.95 -2.39,-35.79 -16.63,-45.75 -16.64,-8.04 -23.21,1.73 -25.58,2.14 -4.17,3.55 -4.84,4.51 -9.08,11.62 -7.36,26.61 -2.47,9.58 -6.04,25.75l-0.24 6.06c12.76,0.06 42.24,0.23 57.56,0.18z"/>
    <path class="fil0" d="M493.22 1780.03l-1.58 26.89c16.48,-0.07 20.07,-0.02 26.16,-0.66 2.53,-1.29 4.23,-13.6 7.35,-24.86 -5.37,-1.13 -26.09,-1.25 -31.93,-1.37z"/>
    <polygon class="fil0" points="573.81,1827.43 574.13,1817.18 516.57,1817 517.29,1828.61 "/>
    <path class="fil14" d="M573.81 1827.43l-56.52 1.18c17.02,16.93 47.17,16.13 56.52,-1.18z"/>
   </g>
   <path class="fil3" d="M426.2 576.43c17.05,0 30.87,13.81 30.87,30.86 0,17.04 -13.82,30.85 -30.87,30.85 -17.05,0 -30.87,-13.81 -30.87,-30.85 0,-17.04 13.82,-30.86 30.87,-30.86zm0 9.18c11.98,0 21.69,9.7 21.69,21.68 0,11.97 -9.71,21.68 -21.69,21.68 -11.98,0 -21.69,-9.7 -21.69,-21.68 0,-11.97 9.71,-21.68 21.69,-21.68z"/>
   <path class="fil3" d="M341.85 544.19l169.01 0.3c12.89,-14.47 19.31,-30.34 21.98,-47.22 4.25,-26.93 6.61,-70.68 -56.12,-73.21 -43.5,-4.05 -59.78,-0.34 -99.11,-0.59 -46.05,1.59 -72.2,27.39 -68.9,73.83 5.72,19.39 13.1,29.67 33.13,46.88z"/>
   <ellipse class="fil4" cx="478.59" cy="487.72" rx="42.73" ry="40.77"/>
   <ellipse class="fil4" cx="373.89" cy="485.86" rx="42.73" ry="40.77"/>
   <path class="fil3" d="M424.76 701.44c31.78,0 57.54,25.78 57.54,57.57 0,31.79 -25.76,57.57 -57.54,57.57 -31.78,0 -57.54,-25.78 -57.54,-57.57 0,-31.8 25.76,-57.57 57.54,-57.57zm0 22.3c19.47,0 35.25,15.79 35.25,35.27 0,19.48 -15.78,35.27 -35.25,35.27 -19.47,0 -35.25,-15.79 -35.25,-35.27 0,-19.48 15.78,-35.27 35.25,-35.27z"/>
   <ellipse class="fil11" cx="424.75" cy="759.04" rx="35.24" ry="35.22"/>
   <g>
    <path class="fil10" d="M271.59 1816.57c3.68,-24.95 2.4,-35.79 16.63,-45.75 16.64,-8.04 23.21,1.73 25.58,2.14 4.17,3.55 4.84,4.51 9.08,11.62 7.36,26.61 2.47,9.57 6.04,25.75l0.24 6.06c-12.76,0.06 -42.24,0.23 -57.56,0.18z"/>
    <path class="fil0" d="M352.5 1779.42l1.58 26.9c-16.48,-0.07 -20.07,-0.02 -26.16,-0.66 -2.53,-1.29 -4.23,-13.6 -7.35,-24.86 5.37,-1.13 26.09,-1.25 31.92,-1.38z"/>
    <polygon class="fil0" points="271.91,1826.82 271.59,1816.57 329.15,1816.39 328.44,1828 "/>
    <path class="fil14" d="M271.91 1826.82l56.53 1.18c-17.03,16.93 -47.17,16.13 -56.53,-1.18z"/>
   </g>
  </g>
 </g>
</svg>
